<svg width="27" height="27" viewBox="0 0 27 27" fill="none" xmlns="http://www.w3.org/2000/svg">
<path d="M18.6 19.1373C18.6 17.3494 16.3167 15.8999 13.5 15.8999C10.6833 15.8999 8.4 17.3494 8.4 19.1373M13.5 13.9575C11.7396 13.9575 10.3125 12.508 10.3125 10.72C10.3125 8.93204 11.7396 7.48259 13.5 7.48259C15.2604 7.48259 16.6875 8.93204 16.6875 10.72C16.6875 12.508 15.2604 13.9575 13.5 13.9575ZM22 11.0295C22 18.3902 16.7214 21.6902 14.4836 22.7586L14.4808 22.7599C14.2455 22.8722 14.1275 22.9286 13.86 22.977C13.6907 23.0077 13.3104 23.0077 13.141 22.977C12.8725 22.9284 12.7533 22.8719 12.5161 22.7586C10.2783 21.6903 5 18.3902 5 11.0295V6.58629C5 5.33105 5 4.70296 5.23161 4.22352C5.43534 3.80179 5.76019 3.45917 6.16003 3.24429C6.6146 3 7.2101 3 8.40021 3H18.6002C19.7903 3 20.3845 3 20.8391 3.24429C21.239 3.45917 21.5649 3.80179 21.7686 4.22352C22 4.70249 22 5.32982 22 6.58261V11.0295Z" stroke="#3A3A3A" stroke-width="1.5" stroke-linecap="round" stroke-linejoin="round"/>
</svg>
