<svg width="40" height="40" viewBox="0 0 40 40" fill="none" xmlns="http://www.w3.org/2000/svg">
<path d="M11.8333 15C11.8333 17.3869 12.7464 19.6761 14.3717 21.364C15.9971 23.0518 18.2015 24 20.5 24M11.8333 15C11.8333 12.6131 12.7464 10.3239 14.3717 8.63604C15.9971 6.94821 18.2015 6 20.5 6M11.8333 15H29.1667M20.5 24C22.7985 24 25.0029 23.0518 26.6283 21.364C28.2536 19.6761 29.1667 17.3869 29.1667 15M20.5 24C22.4254 23.5005 23.3889 20.5005 23.3889 15C23.3889 9.4995 22.4254 6.4995 20.5 6M20.5 24C18.5746 23.5005 17.6111 20.5005 17.6111 15C17.6111 9.4995 18.5746 6.4995 20.5 6M20.5 24V27M29.1667 15C29.1667 12.6131 28.2536 10.3239 26.6283 8.63604C25.0029 6.94821 22.7985 6 20.5 6M7.5 30H17.6111M17.6111 30C17.6111 30.7957 17.9155 31.5587 18.4572 32.1213C18.999 32.6839 19.7338 33 20.5 33C21.2662 33 22.001 32.6839 22.5428 32.1213C23.0845 31.5587 23.3889 30.7957 23.3889 30M17.6111 30C17.6111 29.2044 17.9155 28.4413 18.4572 27.8787C18.999 27.3161 19.7338 27 20.5 27M23.3889 30H33.5M23.3889 30C23.3889 29.2044 23.0845 28.4413 22.5428 27.8787C22.001 27.3161 21.2662 27 20.5 27" stroke="#3A3A3A" stroke-linecap="round" stroke-linejoin="round"/>
</svg>
